<svg>
    <symbol id="icon-home"
            width="16" height="16" viewBox="0 0 16 16"
            xmlns="http://www.w3.org/2000/svg">
        <path fill-rule="evenodd" clip-rule="evenodd" d="M8 1L1 7V14C1 14.5523 1.44772 15 2 15H6V12C6 10.8954 6.89543 10 8 10C9.10457 10 10 10.8954 10 12V15H14C14.5523 15 15 14.5523 15 14V7L8 1Z"  fill="inherit"/>
        <path d="M8 1L8.3254 0.620372C8.13815 0.459876 7.86185 0.459876 7.6746 0.620372L8 1ZM1 7L0.674604 6.62037L0.5 6.77003V7H1ZM6 15V15.5C6.27614 15.5 6.5 15.2761 6.5 15H6ZM10 15H9.5C9.5 15.2761 9.72386 15.5 10 15.5V15ZM15 7H15.5V6.77003L15.3254 6.62037L15 7ZM2 15.5H6V14.5H2V15.5ZM15.3254 6.62037L8.3254 0.620372L7.6746 1.37963L14.6746 7.37963L15.3254 6.62037ZM7.6746 0.620372L0.674604 6.62037L1.3254 7.37963L8.3254 1.37963L7.6746 0.620372ZM6.5 15V12H5.5V15H6.5ZM9.5 12V15H10.5V12H9.5ZM10 15.5H14V14.5H10V15.5ZM15.5 14V7H14.5V14H15.5ZM0.5 7V14H1.5V7H0.5ZM8 10.5C8.82843 10.5 9.5 11.1716 9.5 12H10.5C10.5 10.6193 9.38071 9.5 8 9.5V10.5ZM8 9.5C6.61929 9.5 5.5 10.6193 5.5 12H6.5C6.5 11.1716 7.17157 10.5 8 10.5V9.5ZM14 15.5C14.8284 15.5 15.5 14.8284 15.5 14H14.5C14.5 14.2761 14.2761 14.5 14 14.5V15.5ZM2 14.5C1.72386 14.5 1.5 14.2761 1.5 14H0.5C0.5 14.8284 1.17157 15.5 2 15.5V14.5Z" fill="white"/>
    </symbol>
    <symbol fill="inherit" id="icon-about" width="11" height="14" viewBox="0 0 11 14"  xmlns="http://www.w3.org/2000/svg">
        <path d="M5 1.01V1.51H6V1.01H5ZM6 1V0.5H5V1H6ZM6 13.01L6 3.51H5L5 13.01H6ZM6 1.01V1H5V1.01H6ZM2 4.51H5.5V3.51H2V4.51ZM0 13.51H11V12.51H0V13.51Z" fill="#686868"/>
    </symbol>
    <symbol fill="none" id="icon-contacts" width="16" height="16" viewBox="0 0 16 16"   xmlns="http://www.w3.org/2000/svg">
        <path d="M11 8C11 9.65685 9.65685 11 8 11C6.34315 11 5 9.65685 5 8C5 6.34315 6.34315 5 8 5C9.65685 5 11 6.34315 11 8ZM11 8V9C11 10.1046 11.8954 11 13 11C13.7095 11 14.3328 10.6305 14.6878 10.0734C14.8855 9.76329 15 9.39502 15 9V8C15 4.13401 11.866 1 8 1C4.13401 1 1 4.13401 1 8C1 11.866 4.13401 15 8 15C9.48725 15 10.8662 14.5362 12 13.7453" stroke="#686868"/>
    </symbol>
    <symbol fill="inherit" id="icon-kitchen" width="14" height="14" viewBox="0 0 14 14"   xmlns="http://www.w3.org/2000/svg">
        <path d="M7 0V7.875H0V14H14V0H7ZM7 13.125H0.875V8.75H7V13.125ZM13.125 13.125H7.875V4.375H13.125V13.125ZM13.125 3.5H7.875V0.875H13.125V3.5Z" fill="#686868"/>
        <path d="M6.125 2.88137L5.25 2.00637V0H4.375V2.36862L5.25 3.24362V3.5H1.75V3.24362L2.625 2.36862V0H1.75V2.00637L0.875 2.88137V4.375H6.125V2.88137Z" fill="#686868"/>
        <path d="M5.25 9.625H2.625V10.5H5.25V9.625Z" fill="#686868"/>
        <path d="M9.625 1.75H8.75V2.625H9.625V1.75Z" fill="#686868"/>
        <path d="M9.625 6.125H8.75V8.75H9.625V6.125Z" fill="#686868"/>
        <path d="M1.75 5.25H0.875V6.125H1.75V5.25Z" fill="#686868"/>
        <path d="M3.9375 5.25H3.0625V6.125H3.9375V5.25Z" fill="#686868"/>
        <path d="M6.125 5.25H5.25V6.125H6.125V5.25Z" fill="#686868"/>
    </symbol>
    <symbol fill="inherit" id="icon-bedroom" width="18" height="14" viewBox="0 0 18 14"   xmlns="http://www.w3.org/2000/svg">
        <path d="M17.6432 7.9694C17.6432 7.38579 17.3239 6.85997 16.8098 6.59712C16.2856 6.32902 15.6068 6.19308 14.7923 6.19308H5.93884C5.87509 5.87495 5.73384 5.58591 5.52195 5.35038L4.26642 3.95467C3.95573 3.60928 3.50928 3.39956 3.00934 3.3642L2.7838 3.34825C2.66833 3.33994 2.551 3.35624 2.43838 3.39401V2.6562C2.43838 2.39776 2.32953 2.16436 2.15551 1.99899C2.33197 1.78748 2.43838 1.51552 2.43838 1.21917C2.43838 0.546905 1.89144 0 1.21921 0C0.546974 0 0 0.54694 0 1.21921C0 1.51559 0.106411 1.78751 0.282877 1.99903C0.108857 2.16443 0 2.39779 0 2.65624V13.6554C0 13.8457 0.154275 14 0.344594 14H1.53396C1.7117 14 1.86029 13.8648 1.87704 13.6878C1.91808 13.2538 2.14755 12.0621 2.71606 11.5277H3.63878C3.8291 11.5277 3.98337 11.3734 3.98337 11.1831C3.98337 10.9928 3.8291 10.8385 3.63878 10.8385L0.689154 10.8385V7.80478L5.28866 7.80468V8.70266C5.28866 9.23395 5.72088 9.66621 6.25221 9.66621H16.6797C16.7722 9.66621 16.8653 9.65277 16.954 9.62644V10.8385H15.0551C15.0548 10.8385 15.0545 10.8385 15.0542 10.8385H6.67086C6.48054 10.8385 6.32627 10.9928 6.32627 11.1831C6.32627 11.3734 6.48054 11.5277 6.67086 11.5277H14.9272C15.4934 12.0607 15.7244 13.2535 15.7662 13.6878C15.783 13.8648 15.9315 14 16.1093 14H17.2986C17.4889 14 17.6432 13.8457 17.6432 13.6554V7.9694ZM2.43921 4.52073C2.44434 4.3739 2.42422 4.22217 2.54521 4.11421C2.66692 4.0056 2.81292 4.04119 2.96068 4.05167C3.28626 4.07472 3.56059 4.20053 3.75401 4.4156L5.00954 5.81134C5.21306 6.03753 5.31068 6.35284 5.28439 6.69905C5.27429 6.83234 5.2767 6.9505 5.16436 7.04454C5.06171 7.13048 4.9503 7.11446 4.82673 7.11077C4.47966 7.10036 4.17645 6.97004 3.97293 6.74381L2.7174 5.3481C2.51433 5.12229 2.42873 4.82053 2.43921 4.52073ZM0.689188 7.11556V2.65624C0.689188 2.53611 0.786915 2.43838 0.907041 2.43838H1.53127C1.6514 2.43838 1.74913 2.53611 1.74913 2.65624V7.11552L0.689188 7.11556ZM2.43835 6.0683L3.3804 7.11556H2.43835V6.0683ZM1.21917 0.689223C1.51139 0.689223 1.74916 0.926958 1.74916 1.21921C1.74916 1.51146 1.51142 1.74919 1.21917 1.74919C0.926924 1.74919 0.689188 1.51146 0.689188 1.21921C0.689188 0.926958 0.926924 0.689223 1.21917 0.689223ZM1.23372 13.3108H0.689188V11.5277H1.84468C1.47176 12.1382 1.30312 12.8934 1.23372 13.3108ZM6.25225 8.97706C6.10101 8.97706 5.97795 8.854 5.97795 8.70276L5.97781 6.88227H14.7923C15.4966 6.88227 16.0698 6.99278 16.496 7.2107C16.7785 7.35516 16.954 7.64586 16.954 7.9694V8.70145C16.954 8.7019 16.954 8.70235 16.954 8.7028C16.954 8.85404 16.8309 8.97709 16.6797 8.97709L6.25225 8.97706ZM16.4095 13.3108C16.3401 12.8934 16.1715 12.1382 15.7986 11.5277H16.954V13.3108H16.4095Z" fill="#686868"/>
        <path d="M5.47316 11.0514C5.40186 10.8776 5.19611 10.7935 5.02312 10.865C4.84951 10.9367 4.76484 11.1415 4.83669 11.315C4.9085 11.4885 5.1133 11.5733 5.28673 11.5015C5.45983 11.4297 5.54522 11.2245 5.47316 11.0514Z" fill="#686868"/>
    </symbol>
    <symbol fill="inherit" id="icon-livingRoom" width="20" height="14" viewBox="0 0 20 14"   xmlns="http://www.w3.org/2000/svg">
        <path d="M18.766 10.1277H17.8723V8.34043H18.4681C18.6326 8.34035 18.7659 8.20694 18.7658 8.0424C18.7658 8.0261 18.7645 8.00979 18.7618 7.9937L18.4639 6.20647C18.44 6.06282 18.3158 5.95752 18.1702 5.95745H16.9787C16.8331 5.95752 16.7089 6.06282 16.685 6.20647L16.3871 7.9937C16.3602 8.15597 16.4698 8.30941 16.6321 8.3364C16.6482 8.33908 16.6645 8.34043 16.6809 8.34043H17.2766V10.1277H16.0851C16.0751 10.129 16.0651 10.131 16.0553 10.1336C15.9155 9.43816 15.3051 8.9374 14.5957 8.93617H14V8.04255C14 7.54902 13.5999 7.14894 13.1064 7.14894H10.7234C10.2299 7.14894 9.82979 7.54902 9.82979 8.04255V8.93617H9.23404V8.04255C9.23404 7.54902 8.83396 7.14894 8.34043 7.14894H5.95745C5.46391 7.14894 5.06383 7.54902 5.06383 8.04255V8.93617H4.46808C3.7587 8.9374 3.14836 9.43816 3.00851 10.1336C2.99872 10.131 2.98878 10.129 2.97872 10.1277H1.78723V8.34043H2.38298C2.54748 8.34035 2.68078 8.20694 2.6807 8.0424C2.6807 8.0261 2.67936 8.00979 2.67668 7.9937L2.37881 6.20647C2.35494 6.06282 2.23073 5.95752 2.08511 5.95745H0.893617C0.747995 5.95752 0.623782 6.06282 0.599915 6.20647L0.302043 7.9937C0.275048 8.15597 0.384739 8.30941 0.547043 8.3364C0.563128 8.33908 0.579436 8.34043 0.595745 8.34043H1.19149V10.1277H0.297872C0.133372 10.1277 0 10.261 0 10.4255V13.7021C0 13.8666 0.133372 14 0.297872 14H18.766C18.9305 14 19.0638 13.8666 19.0638 13.7021V10.4255C19.0638 10.261 18.9305 10.1277 18.766 10.1277ZM0.947532 7.74468L1.14591 6.55319H1.83281L2.03119 7.74468H0.947532ZM2.68085 13.4043H0.595745V10.7234H2.68085V13.4043ZM10.4255 8.04255C10.4255 7.87805 10.5589 7.74468 10.7234 7.74468H13.1064C13.2709 7.74468 13.4043 7.87805 13.4043 8.04255V8.93617H10.4255V8.04255ZM5.65957 8.04255C5.65957 7.87805 5.79295 7.74468 5.95745 7.74468H8.34043C8.50493 7.74468 8.6383 7.87805 8.6383 8.04255V8.93617H5.65957V8.04255ZM15.4894 13.4043H3.57447V12.5106H15.4894V13.4043ZM15.4894 11.9149H3.57447V10.4255C3.57447 9.93199 3.97455 9.53191 4.46808 9.53191H14.5957C15.0893 9.53191 15.4894 9.93199 15.4894 10.4255V11.9149ZM17.0326 7.74468L17.231 6.55319H17.9179L18.1163 7.74468H17.0326ZM18.4681 13.4043H16.383V10.7234H18.4681V13.4043Z" fill="#686868"/>
        <path d="M5.95745 5.3617H12.5106C12.6751 5.3617 12.8085 5.22833 12.8085 5.06383V0.297872C12.8085 0.133372 12.6751 0 12.5106 0H5.95745C5.79295 0 5.65957 0.133372 5.65957 0.297872V5.06383C5.65957 5.22833 5.79295 5.3617 5.95745 5.3617ZM6.25532 0.595745H12.2128V3.61855L11.5518 2.79255C11.499 2.72631 11.4204 2.68569 11.3358 2.68085C11.2513 2.67713 11.1691 2.70848 11.1086 2.76753L10.1277 3.74902L8.25315 1.87451C8.14312 1.76463 7.96704 1.75789 7.84894 1.85902L6.25532 3.22506V0.595745ZM6.25532 4.00906L8.02677 2.48991L9.91706 4.37992C10.0334 4.4962 10.2219 4.4962 10.3383 4.37992L11.2944 3.42374L12.2128 4.57294V4.76596H6.25532V4.00906Z" fill="#686868"/>
        <path d="M10.4255 2.68085C10.9191 2.68085 11.3191 2.28077 11.3191 1.78723C11.3191 1.2937 10.9191 0.893617 10.4255 0.893617C9.93199 0.893617 9.53191 1.2937 9.53191 1.78723C9.53191 2.28077 9.93199 2.68085 10.4255 2.68085ZM10.4255 1.48936C10.59 1.48936 10.7234 1.62273 10.7234 1.78723C10.7234 1.95173 10.59 2.08511 10.4255 2.08511C10.261 2.08511 10.1277 1.95173 10.1277 1.78723C10.1277 1.62273 10.261 1.48936 10.4255 1.48936Z" fill="#686868"/>
    </symbol>
    <symbol fill="inherit" id="icon-hallway" width="14" height="14" viewBox="0 0 14 14"   xmlns="http://www.w3.org/2000/svg">
        <path d="M13.5352 0H0.410156C0.183641 0 0 0.183641 0 0.410156C0 0.636672 0.183641 0.820312 0.410156 0.820312H0.4375V13.5898C0.4375 13.8164 0.621141 14 0.847656 14C1.07417 14 1.25781 13.8164 1.25781 13.5898V13.3438H12.6875V13.5898C12.6875 13.8164 12.8711 14 13.0977 14C13.3242 14 13.5078 13.8164 13.5078 13.5898V0.820312H13.5352C13.7617 0.820312 13.9453 0.636672 13.9453 0.410156C13.9453 0.183641 13.7617 0 13.5352 0ZM7.38281 8.50391H12.6875V10.0898H7.38281V8.50391ZM12.6875 7.68359H7.38281V6.09766H12.6875V7.68359ZM6.5625 12.5234H4.32031V0.820312H6.5625V12.5234ZM1.25781 0.820312H3.5V12.5234H1.25781V0.820312ZM7.38281 12.5234V10.9102H12.6875V12.5234H7.38281ZM12.6875 5.27734H7.38281V0.820312H12.6875V5.27734Z" fill="#686868"/>
        <path d="M5.44141 7.41016C5.66793 7.41016 5.85156 7.22652 5.85156 7C5.85156 6.77348 5.66793 6.58984 5.44141 6.58984C5.21488 6.58984 5.03125 6.77348 5.03125 7C5.03125 7.22652 5.21488 7.41016 5.44141 7.41016Z" fill="#686868"/>
        <path d="M2.37891 7.41018C2.60543 7.41018 2.78906 7.22655 2.78906 7.00003C2.78906 6.7735 2.60543 6.58987 2.37891 6.58987C2.15238 6.58987 1.96875 6.7735 1.96875 7.00003C1.96875 7.22655 2.15238 7.41018 2.37891 7.41018Z" fill="#686868"/>
    </symbol>
    <symbol fill="inherit" id="icon-children" width="14" height="14" viewBox="0 0 14 14"   xmlns="http://www.w3.org/2000/svg">
        <path d="M13.8821 11.6617C13.724 11.501 13.4662 11.4982 13.3045 11.6547C13.3045 11.6547 13.304 11.655 13.3032 11.6557L13.302 11.6546L13.3044 11.6523C13.303 11.6536 13.2545 11.6991 13.1521 11.7734V5.38457C13.1521 5.15806 12.9685 4.97442 12.742 4.97442C12.5155 4.97442 12.3318 5.15806 12.3318 5.38457V5.79004C10.8676 5.75677 10.1135 5.54603 9.38283 5.34156C8.70821 5.15275 8.07103 4.97442 6.99988 4.97442C5.92873 4.97442 5.29152 5.15275 4.61693 5.34156C3.88626 5.54606 3.13221 5.75679 1.66792 5.79004V3.74397C1.66792 2.27218 2.33876 1.26997 3.55688 0.921912C4.68816 0.598714 5.88156 1.0679 6.49709 2.04477C6.34788 2.11849 6.22133 2.19756 6.11781 2.28189L5.64931 1.81333C5.48916 1.65316 5.22945 1.65316 5.06927 1.81333C4.90909 1.97351 4.90909 2.23319 5.06927 2.39337L5.59957 2.92367L5.06927 3.45396C4.90909 3.61414 4.90909 3.87382 5.06927 4.034C5.22942 4.19415 5.48913 4.19418 5.64931 4.034L6.11786 3.56547C6.25953 3.68086 6.44407 3.78651 6.67121 3.88191C7.05902 4.04474 7.52074 4.15417 7.82021 4.15417C8.49868 4.15417 9.05066 3.60219 9.05066 2.92372C9.05066 2.24525 8.49868 1.69327 7.82021 1.69327C7.67228 1.69327 7.4847 1.72004 7.28605 1.76671C6.51106 0.376303 4.87691 -0.30832 3.33157 0.133165C1.75301 0.584194 0.847645 1.90029 0.847645 3.74397V11.7734C0.745326 11.699 0.696764 11.6536 0.695397 11.6522L0.697749 11.6545L0.696628 11.6557C0.696409 11.6555 0.695425 11.6545 0.695425 11.6545C0.533771 11.498 0.275813 11.5009 0.117741 11.6616C-0.0410967 11.8231 -0.0389639 12.0828 0.122553 12.2417C0.158209 12.2771 0.623484 12.7201 1.7079 13.1507C2.79225 13.5818 4.49364 14.0002 6.99991 14C9.50617 14.0002 11.2076 13.5818 12.2919 13.1507C13.3763 12.7201 13.8416 12.2771 13.8773 12.2417C14.0388 12.0828 14.0409 11.8232 13.8821 11.6617ZM7.09615 2.67938C7.38919 2.5705 7.68223 2.51351 7.82021 2.51351C8.04636 2.51351 8.23036 2.69751 8.23036 2.92367C8.23036 3.14982 8.04636 3.33382 7.82021 3.33382C7.68223 3.33382 7.38919 3.27683 7.09615 3.16795C6.84197 3.07348 6.69875 2.98163 6.62959 2.92367C6.69875 2.8657 6.84197 2.77385 7.09615 2.67938ZM1.66795 6.61043C3.25012 6.57556 4.09043 6.34074 4.83803 6.13148C5.48374 5.95077 6.04138 5.79472 6.99991 5.79472C7.95843 5.79472 8.51607 5.9508 9.16178 6.13148C9.90938 6.34071 10.7497 6.57554 12.3319 6.61043V10.7165H1.66795V6.61043ZM1.66795 11.5368H12.3319V12.2396C10.772 12.9562 8.73058 13.1774 6.99991 13.1774C5.26934 13.1774 3.22783 12.9562 1.66795 12.2396V11.5368Z" fill="#686868"/>
        <path d="M3.71839 9.89624C3.9449 9.89624 4.12854 9.7126 4.12854 9.48609V7.84548C4.12854 7.61897 3.9449 7.43533 3.71839 7.43533C3.49188 7.43533 3.30824 7.61897 3.30824 7.84548V9.48609C3.30824 9.7126 3.49188 9.89624 3.71839 9.89624Z" fill="#686868"/>
        <path d="M5.35898 9.89624C5.58549 9.89624 5.76913 9.7126 5.76913 9.48609V7.84548C5.76913 7.61897 5.58549 7.43533 5.35898 7.43533C5.13247 7.43533 4.94883 7.61897 4.94883 7.84548V9.48609C4.94883 9.7126 5.13247 9.89624 5.35898 9.89624Z" fill="#686868"/>
        <path d="M6.99959 9.89624C7.2261 9.89624 7.40974 9.7126 7.40974 9.48609V7.84548C7.40974 7.61897 7.2261 7.43533 6.99959 7.43533C6.77308 7.43533 6.58944 7.61897 6.58944 7.84548V9.48609C6.58944 9.7126 6.77308 9.89624 6.99959 9.89624Z" fill="#686868"/>
        <path d="M8.6402 9.89624C8.86671 9.89624 9.05035 9.7126 9.05035 9.48609V7.84548C9.05035 7.61897 8.86671 7.43533 8.6402 7.43533C8.41369 7.43533 8.23005 7.61897 8.23005 7.84548V9.48609C8.23005 9.7126 8.41369 9.89624 8.6402 9.89624Z" fill="#686868"/>
        <path d="M10.2808 9.89624C10.5073 9.89624 10.6909 9.7126 10.6909 9.48609V7.84548C10.6909 7.61897 10.5073 7.43533 10.2808 7.43533C10.0543 7.43533 9.87063 7.61897 9.87063 7.84548V9.48609C9.87063 9.7126 10.0543 9.89624 10.2808 9.89624Z" fill="#686868"/>
    </symbol>
    <symbol fill="none" id="icon-promotion" xmlns="http://www.w3.org/2000/svg" width="16" height="16" viewBox="0 0 16 16"  >
        <path d="M5.5 6H6.5M9.5 10H10.5M10.5 5.5L5.5 10.5M7.30145 1.28935L6.17243 2.41837C5.98717 2.60363 5.73589 2.70772 5.47389 2.70772H3.69561C3.15001 2.70772 2.70772 3.15001 2.70772 3.69561V5.47389C2.70772 5.73589 2.60363 5.98717 2.41837 6.17243L1.28935 7.30145C0.903551 7.68725 0.903551 8.31275 1.28935 8.69855L2.41837 9.82757C2.60363 10.0128 2.70772 10.2641 2.70772 10.5261V12.3044C2.70772 12.85 3.15001 13.2923 3.69561 13.2923H5.47389C5.73589 13.2923 5.98717 13.3964 6.17243 13.5816L7.30145 14.7107C7.68725 15.0964 8.31275 15.0964 8.69855 14.7107L9.82757 13.5816C10.0128 13.3964 10.2641 13.2923 10.5261 13.2923H12.3044C12.85 13.2923 13.2923 12.85 13.2923 12.3044V10.5261C13.2923 10.2641 13.3964 10.0128 13.5816 9.82757L14.7107 8.69855C15.0964 8.31275 15.0964 7.68725 14.7107 7.30145L13.5816 6.17243C13.3964 5.98717 13.2923 5.73589 13.2923 5.47389V3.69561C13.2923 3.15001 12.85 2.70772 12.3044 2.70772H10.5261C10.2641 2.70772 10.0128 2.60363 9.82757 2.41837L8.69855 1.28935C8.31275 0.903551 7.68725 0.903551 7.30145 1.28935Z" stroke="#E92D2D"/>
    </symbol>
    <symbol fill="inherit" id="icon-new" xmlns="http://www.w3.org/2000/svg" width="15" height="14" viewBox="0 0 15 14"  >
        <path fill-rule="evenodd" clip-rule="evenodd" d="M13.1947 5.95794L13.2049 5.96547C13.578 6.23939 14.0012 6.55169 14.0012 7.00033C14.0012 7.44888 13.5783 7.76052 13.2058 8.035L13.2056 8.03516C12.9901 8.19221 12.7211 8.39066 12.6858 8.52214C12.698 8.77478 12.7688 9.02114 12.8927 9.24165L12.8983 9.25442C13.0859 9.68684 13.2783 10.1304 13.0607 10.5047C12.841 10.8828 12.3473 10.9382 11.8701 10.9917C11.6234 10.9933 11.3802 11.0509 11.1591 11.1603C11.0495 11.3816 10.9916 11.625 10.9899 11.8719C10.9363 12.3492 10.8742 12.8465 10.4992 13.0626C10.1243 13.2787 9.67262 13.0839 9.23677 12.894C9.01771 12.7704 8.77324 12.6988 8.52214 12.6846C8.39494 12.7174 8.2021 12.9788 8.04426 13.1927L8.03516 13.205L8.03464 13.2057C7.76021 13.5781 7.44928 14 7.00033 14C6.55132 14 6.24033 13.578 5.96591 13.2056L5.96591 13.2056L5.9655 13.205C5.80782 12.9895 5.61 12.7205 5.47852 12.6852C5.22611 12.6989 4.98012 12.7696 4.75901 12.8921L4.7482 12.8968C4.31516 13.0853 3.87081 13.2787 3.49591 13.0601C3.1179 12.8398 3.06249 12.3467 3.00893 11.8701C3.00784 11.6223 2.94995 11.378 2.8397 11.1561C2.61853 11.046 2.37514 10.9879 2.1281 10.9862C1.65147 10.9357 1.15595 10.8748 0.938043 10.4992C0.720132 10.1236 0.916129 9.67199 1.10605 9.23614C1.22997 9.01746 1.30165 8.77309 1.31546 8.52211C1.28311 8.3945 1.01959 8.20025 0.80584 8.04268L0.805826 8.04267L0.795603 8.03513C0.42244 7.76121 0 7.44953 0 7.0003C0 6.55107 0.42244 6.23939 0.794976 5.96547C1.01046 5.80842 1.27953 5.60997 1.31483 5.47849C1.30142 5.22668 1.22974 4.98143 1.10542 4.76204C0.913076 4.32558 0.720075 3.87387 0.939812 3.49586C1.15955 3.11784 1.65324 3.06243 2.13046 3.00887C2.37642 3.00762 2.61887 2.95061 2.83961 2.84209C2.94924 2.62079 3.0071 2.37745 3.00884 2.13049C3.06243 1.65084 3.12512 1.15413 3.49948 0.937416C3.87384 0.720703 4.3255 0.913048 4.76378 1.10602C4.98317 1.22874 5.22748 1.30031 5.4784 1.31543C5.6056 1.28259 5.79844 1.02124 5.95628 0.80731L5.96538 0.794976L5.96591 0.794268C6.24033 0.421905 6.55127 0 7.00021 0C7.44718 0 7.75737 0.418182 8.03268 0.789324L8.03687 0.794976C8.19455 1.01046 8.39237 1.27953 8.52385 1.31483C8.77501 1.30093 9.01957 1.22929 9.23848 1.10542C9.6743 0.913076 10.1266 0.720103 10.5046 0.940469C10.8826 1.16083 10.938 1.6539 10.9916 2.13052C10.9927 2.37834 11.0506 2.62261 11.1608 2.84455C11.382 2.95463 11.6254 3.01272 11.8724 3.01438C12.349 3.06491 12.8446 3.12577 13.0625 3.50136C13.2804 3.87695 13.0844 4.32861 12.8945 4.76446C12.7705 4.98314 12.6989 5.2275 12.6851 5.47849C12.7174 5.6061 12.9809 5.80037 13.1947 5.95794ZM4.93054 8.40032C4.98801 8.47696 5.07823 8.52207 5.17402 8.52207C5.20675 8.52207 5.23922 8.51674 5.27021 8.50623C5.39444 8.46486 5.47831 8.34864 5.47839 8.2177V5.78284C5.47839 5.61475 5.34211 5.47847 5.17402 5.47847C5.00593 5.47847 4.86965 5.61475 4.86965 5.78284V7.30463L3.59135 5.60023C3.53388 5.52359 3.44366 5.47847 3.34787 5.47847C3.17978 5.47847 3.0435 5.61475 3.0435 5.78284V8.2177C3.0435 8.38579 3.17978 8.52207 3.34787 8.52207C3.51596 8.52207 3.65224 8.38579 3.65224 8.2177V6.69592L4.93054 8.40032ZM7.60897 8.52207H6.39153C6.22344 8.52207 6.08716 8.38579 6.08716 8.2177V7.00026V5.78284C6.08716 5.61475 6.22344 5.47847 6.39153 5.47847H7.60897C7.77706 5.47847 7.91334 5.61475 7.91334 5.78284C7.91334 5.95093 7.77706 6.08721 7.60897 6.08721H6.6959V6.69589H7.60897C7.77706 6.69589 7.91334 6.83217 7.91334 7.00026C7.91334 7.16835 7.77706 7.30463 7.60897 7.30463H6.6959V7.91336H7.60897C7.77706 7.91336 7.91334 8.04964 7.91334 8.21773C7.91334 8.38582 7.77706 8.52207 7.60897 8.52207ZM10.3634 8.31393C10.4048 8.43839 10.5214 8.52228 10.6525 8.52211L10.6647 8.52151C10.7999 8.51637 10.9155 8.42264 10.9484 8.29141L11.5571 5.85655C11.5978 5.69331 11.4984 5.52804 11.3352 5.48736C11.172 5.44667 11.0067 5.54602 10.966 5.70923L10.6112 7.12998L10.333 6.29543C10.3012 6.22541 10.2451 6.16931 10.1751 6.13755C10.0156 6.06522 9.82762 6.1359 9.75529 6.29543L9.47712 7.12998L9.12224 5.70923C9.08155 5.54602 8.91626 5.44667 8.75305 5.48736C8.58983 5.52804 8.49048 5.69334 8.53117 5.85655L9.13988 8.29141C9.17278 8.42264 9.28834 8.51637 9.42353 8.52151C9.56015 8.53172 9.68535 8.44527 9.72424 8.31393L10.0438 7.35397L10.3634 8.31393Z" fill="#FFC107"/>
    </symbol>
    <symbol fill="inherit" id="icon-mattress" xmlns="http://www.w3.org/2000/svg" width="20" height="14" viewBox="0 0 20 14"  >
        <path d="M17.5 0H1.59091C1.16912 0.000479178 0.764745 0.168246 0.466496 0.466496C0.168246 0.764745 0.000479178 1.16912 0 1.59091V12.4091C0.000479178 12.8309 0.168246 13.2353 0.466496 13.5335C0.764745 13.8318 1.16912 13.9995 1.59091 14H17.5C17.9218 13.9995 18.3262 13.8318 18.6244 13.5335C18.9227 13.2353 19.0904 12.8309 19.0909 12.4091V1.59091C19.0904 1.16912 18.9227 0.764745 18.6244 0.466496C18.3262 0.168246 17.9218 0.000479178 17.5 0ZM17.5 13.3636H1.59091C1.33784 13.3633 1.09521 13.2627 0.916263 13.0837C0.737314 12.9048 0.636653 12.6622 0.636364 12.4091V12.09C0.911349 12.2974 1.24649 12.4094 1.59091 12.4091H2.86364V11.7727H1.59091C1.33784 11.7724 1.09521 11.6718 0.91626 11.4928C0.73731 11.3139 0.63665 11.0713 0.636364 10.8182V10.4991C0.911349 10.7065 1.24649 10.8185 1.59091 10.8182H17.5C17.8444 10.8185 18.1796 10.7065 18.4545 10.4991V10.8182C18.4543 11.0713 18.3536 11.3139 18.1746 11.4928C17.9957 11.6718 17.7531 11.7724 17.5 11.7727H12.4091V12.4091H17.5C17.8444 12.4094 18.1796 12.2974 18.4545 12.09V12.4091C18.4543 12.6622 18.3536 12.9048 18.1746 13.0837C17.9957 13.2627 17.7531 13.3633 17.5 13.3636ZM18.4545 9.22727C18.4543 9.48034 18.3536 9.72297 18.1746 9.90192C17.9957 10.0809 17.7531 10.1815 17.5 10.1818H1.59091C1.33784 10.1815 1.09521 10.0809 0.916263 9.90192C0.737314 9.72297 0.636653 9.48034 0.636364 9.22727V1.59091C0.636653 1.33784 0.737314 1.09521 0.916263 0.916263C1.09521 0.737314 1.33784 0.636653 1.59091 0.636364H17.5C17.7531 0.636653 17.9957 0.737314 18.1746 0.916263C18.3536 1.09521 18.4543 1.33784 18.4545 1.59091V9.22727Z" fill="#686868"/>
        <path d="M3.5 11.7727H4.13636V12.4091H3.5V11.7727Z" fill="#686868"/>
        <path d="M11.1364 11.7727H11.7727V12.4091H11.1364V11.7727Z" fill="#686868"/>
        <path d="M3.5 2.22727V1.59091H2.86364V2.22727C2.86354 2.31163 2.82999 2.3925 2.77034 2.45215C2.71069 2.5118 2.62981 2.54536 2.54545 2.54545H1.90909V3.18182H2.54545C2.62981 3.18191 2.71069 3.21547 2.77034 3.27512C2.82999 3.33477 2.86354 3.41564 2.86364 3.5V4.77273C2.86354 4.85708 2.82999 4.93796 2.77034 4.99761C2.71069 5.05726 2.62981 5.09081 2.54545 5.09091H1.90909V5.72727H2.54545C2.62981 5.72737 2.71069 5.76092 2.77034 5.82057C2.82999 5.88022 2.86354 5.9611 2.86364 6.04545V7.31818C2.86354 7.40254 2.82999 7.48341 2.77034 7.54306C2.71069 7.60271 2.62981 7.63627 2.54545 7.63636H1.90909V8.27273H2.54545C2.62981 8.27282 2.71069 8.30638 2.77034 8.36603C2.82999 8.42568 2.86354 8.50655 2.86364 8.59091V9.22727H3.5V8.59091C3.5001 8.50655 3.53365 8.42568 3.5933 8.36603C3.65295 8.30638 3.73382 8.27282 3.81818 8.27273H4.45455V7.63636H3.81818C3.73382 7.63627 3.65295 7.60271 3.5933 7.54306C3.53365 7.48341 3.5001 7.40254 3.5 7.31818V6.04545C3.5001 5.9611 3.53365 5.88022 3.5933 5.82057C3.65295 5.76092 3.73382 5.72737 3.81818 5.72727H4.45455V5.09091H3.81818C3.73382 5.09081 3.65295 5.05726 3.5933 4.99761C3.53365 4.93796 3.5001 4.85708 3.5 4.77273V3.5C3.5001 3.41564 3.53365 3.33477 3.5933 3.27512C3.65295 3.21547 3.73382 3.18191 3.81818 3.18182H4.45455V2.54545H3.81818C3.73382 2.54536 3.65295 2.5118 3.5933 2.45215C3.53365 2.3925 3.5001 2.31163 3.5 2.22727Z" fill="#686868"/>
        <path d="M6.68182 2.22727V1.59091H6.04545V2.22727C6.04536 2.31163 6.01181 2.3925 5.95216 2.45215C5.89251 2.5118 5.81163 2.54536 5.72727 2.54545H5.09091V3.18182H5.72727C5.81163 3.18191 5.89251 3.21547 5.95216 3.27512C6.01181 3.33477 6.04536 3.41564 6.04545 3.5V4.77273C6.04536 4.85708 6.01181 4.93796 5.95216 4.99761C5.89251 5.05726 5.81163 5.09081 5.72727 5.09091H5.09091V5.72727H5.72727C5.81163 5.72737 5.89251 5.76092 5.95216 5.82057C6.01181 5.88022 6.04536 5.9611 6.04545 6.04545V7.31818C6.04536 7.40254 6.01181 7.48341 5.95216 7.54306C5.89251 7.60271 5.81163 7.63627 5.72727 7.63636H5.09091V8.27273H5.72727C5.81163 8.27282 5.89251 8.30638 5.95216 8.36603C6.01181 8.42568 6.04536 8.50655 6.04545 8.59091V9.22727H6.68182V8.59091C6.68192 8.50655 6.71547 8.42568 6.77512 8.36603C6.83477 8.30638 6.91564 8.27282 7 8.27273H7.63636V7.63636H7C6.91564 7.63627 6.83477 7.60271 6.77512 7.54306C6.71547 7.48341 6.68192 7.40254 6.68182 7.31818V6.04545C6.68192 5.9611 6.71547 5.88022 6.77512 5.82057C6.83477 5.76092 6.91564 5.72737 7 5.72727H7.63636V5.09091H7C6.91564 5.09081 6.83477 5.05726 6.77512 4.99761C6.71547 4.93796 6.68192 4.85708 6.68182 4.77273V3.5C6.68192 3.41564 6.71547 3.33477 6.77512 3.27512C6.83477 3.21547 6.91564 3.18191 7 3.18182H7.63636V2.54545H7C6.91564 2.54536 6.83477 2.5118 6.77512 2.45215C6.71547 2.3925 6.68192 2.31163 6.68182 2.22727Z" fill="#686868"/>
        <path d="M9.86364 2.22727V1.59091H9.22727V2.22727C9.22718 2.31163 9.19362 2.3925 9.13397 2.45215C9.07432 2.5118 8.99345 2.54536 8.90909 2.54545H8.27273V3.18182H8.90909C8.99345 3.18191 9.07432 3.21547 9.13397 3.27512C9.19362 3.33477 9.22718 3.41564 9.22727 3.5V4.77273C9.22718 4.85708 9.19362 4.93796 9.13397 4.99761C9.07432 5.05726 8.99345 5.09081 8.90909 5.09091H8.27273V5.72727H8.90909C8.99345 5.72737 9.07432 5.76092 9.13397 5.82057C9.19362 5.88022 9.22718 5.9611 9.22727 6.04545V7.31818C9.22718 7.40254 9.19362 7.48341 9.13397 7.54306C9.07432 7.60271 8.99345 7.63627 8.90909 7.63636H8.27273V8.27273H8.90909C8.99345 8.27282 9.07432 8.30638 9.13397 8.36603C9.19362 8.42568 9.22718 8.50655 9.22727 8.59091V9.22727H9.86364V8.59091C9.86373 8.50655 9.89729 8.42568 9.95694 8.36603C10.0166 8.30638 10.0975 8.27282 10.1818 8.27273H10.8182V7.63636H10.1818C10.0975 7.63627 10.0166 7.60271 9.95694 7.54306C9.89729 7.48341 9.86373 7.40254 9.86364 7.31818V6.04545C9.86373 5.9611 9.89729 5.88022 9.95694 5.82057C10.0166 5.76092 10.0975 5.72737 10.1818 5.72727H10.8182V5.09091H10.1818C10.0975 5.09081 10.0166 5.05726 9.95694 4.99761C9.89729 4.93796 9.86373 4.85708 9.86364 4.77273V3.5C9.86373 3.41564 9.89729 3.33477 9.95694 3.27512C10.0166 3.21547 10.0975 3.18191 10.1818 3.18182H10.8182V2.54545H10.1818C10.0975 2.54536 10.0166 2.5118 9.95694 2.45215C9.89729 2.3925 9.86373 2.31163 9.86364 2.22727Z" fill="#686868"/>
        <path d="M13.0455 2.22727V1.59091H12.4091V2.22727C12.409 2.31163 12.3754 2.3925 12.3158 2.45215C12.2561 2.5118 12.1753 2.54536 12.0909 2.54545H11.4545V3.18182H12.0909C12.1753 3.18191 12.2561 3.21547 12.3158 3.27512C12.3754 3.33477 12.409 3.41564 12.4091 3.5V4.77273C12.409 4.85708 12.3754 4.93796 12.3158 4.99761C12.2561 5.05726 12.1753 5.09081 12.0909 5.09091H11.4545V5.72727H12.0909C12.1753 5.72737 12.2561 5.76092 12.3158 5.82057C12.3754 5.88022 12.409 5.9611 12.4091 6.04545V7.31818C12.409 7.40254 12.3754 7.48341 12.3158 7.54306C12.2561 7.60271 12.1753 7.63627 12.0909 7.63636H11.4545V8.27273H12.0909C12.1753 8.27282 12.2561 8.30638 12.3158 8.36603C12.3754 8.42568 12.409 8.50655 12.4091 8.59091V9.22727H13.0455V8.59091C13.0456 8.50655 13.0791 8.42568 13.1388 8.36603C13.1984 8.30638 13.2793 8.27282 13.3636 8.27273H14V7.63636H13.3636C13.2793 7.63627 13.1984 7.60271 13.1388 7.54306C13.0791 7.48341 13.0456 7.40254 13.0455 7.31818V6.04545C13.0456 5.9611 13.0791 5.88022 13.1388 5.82057C13.1984 5.76092 13.2793 5.72737 13.3636 5.72727H14V5.09091H13.3636C13.2793 5.09081 13.1984 5.05726 13.1388 4.99761C13.0791 4.93796 13.0456 4.85708 13.0455 4.77273V3.5C13.0456 3.41564 13.0791 3.33477 13.1388 3.27512C13.1984 3.21547 13.2793 3.18191 13.3636 3.18182H14V2.54545H13.3636C13.2793 2.54536 13.1984 2.5118 13.1388 2.45215C13.0791 2.3925 13.0456 2.31163 13.0455 2.22727Z" fill="#686868"/>
        <path d="M16.2273 2.22727V1.59091H15.5909V2.22727C15.5908 2.31163 15.5573 2.3925 15.4976 2.45215C15.438 2.5118 15.3571 2.54536 15.2727 2.54545H14.6364V3.18182H15.2727C15.3571 3.18191 15.438 3.21547 15.4976 3.27512C15.5573 3.33477 15.5908 3.41564 15.5909 3.5V4.77273C15.5908 4.85708 15.5573 4.93796 15.4976 4.99761C15.438 5.05726 15.3571 5.09081 15.2727 5.09091H14.6364V5.72727H15.2727C15.3571 5.72737 15.438 5.76092 15.4976 5.82057C15.5573 5.88022 15.5908 5.9611 15.5909 6.04545V7.31818C15.5908 7.40254 15.5573 7.48341 15.4976 7.54306C15.438 7.60271 15.3571 7.63627 15.2727 7.63636H14.6364V8.27273H15.2727C15.3571 8.27282 15.438 8.30638 15.4976 8.36603C15.5573 8.42568 15.5908 8.50655 15.5909 8.59091V9.22727H16.2273V8.59091C16.2274 8.50655 16.2609 8.42568 16.3206 8.36603C16.3802 8.30638 16.4611 8.27282 16.5455 8.27273H17.1818V7.63636H16.5455C16.4611 7.63627 16.3802 7.60271 16.3206 7.54306C16.2609 7.48341 16.2274 7.40254 16.2273 7.31818V6.04545C16.2274 5.9611 16.2609 5.88022 16.3206 5.82057C16.3802 5.76092 16.4611 5.72737 16.5455 5.72727H17.1818V5.09091H16.5455C16.4611 5.09081 16.3802 5.05726 16.3206 4.99761C16.2609 4.93796 16.2274 4.85708 16.2273 4.77273V3.5C16.2274 3.41564 16.2609 3.33477 16.3206 3.27512C16.3802 3.21547 16.4611 3.18191 16.5455 3.18182H17.1818V2.54545H16.5455C16.4611 2.54536 16.3802 2.5118 16.3206 2.45215C16.2609 2.3925 16.2274 2.31163 16.2273 2.22727Z" fill="#686868"/>
    </symbol>
    <symbol fill="inherit" id="icon-soft" xmlns="http://www.w3.org/2000/svg" width="14" height="14" viewBox="0 0 14 14"  >
        <path d="M13.9423 5.35062C13.771 4.6507 13.1804 4.08067 12.4728 3.93254C12.4144 3.92029 12.3562 3.92244 12.2977 3.91544C11.7713 1.63304 9.76471 0 7.38948 0H6.61165C4.23686 0 2.22997 1.63337 1.7033 3.91552C1.33113 3.96269 0.975552 4.10503 0.685198 4.35181C0.249922 4.72212 0 5.26214 0 5.83333C0 6.44135 0.293198 7.01557 0.777838 7.38092V10.8889C0.777838 11.4622 1.09295 11.9583 1.55568 12.2281V12.8333C1.55568 13.4767 2.07904 14 2.72245 14C3.36587 14 3.88923 13.4767 3.88923 12.8333V12.4444H10.112V12.8333C10.112 13.4767 10.6353 14 11.2787 14C11.9222 14 12.4455 13.4767 12.4455 12.8333V12.2281C12.9083 11.9583 13.2234 11.4622 13.2234 10.8889V7.38132C13.8451 6.91494 14.1318 6.12653 13.9423 5.35062ZM6.6111 0.777766H7.38886C9.35823 0.777766 11.0258 2.10561 11.5118 3.97567C11.2666 4.04713 11.0332 4.1588 10.8304 4.32334C10.3731 4.69474 10.1111 5.24504 10.1111 5.83333V7.77777H3.8889V5.91649C3.8889 5.00759 3.2993 4.21549 2.48861 3.97352C2.97496 2.10489 4.64264 0.777766 6.6111 0.777766ZM10.8889 8.94443C10.8889 9.15899 10.7146 9.33333 10.5 9.33333H3.5C3.28544 9.33333 3.1111 9.15903 3.1111 8.94443C3.1111 8.72987 3.28541 8.55553 3.5 8.55553H10.5C10.7146 8.55557 10.8889 8.72987 10.8889 8.94443ZM3.1111 12.8333C3.1111 13.0479 2.93679 13.2222 2.7222 13.2222C2.50764 13.2222 2.33333 13.0479 2.33333 12.8333V12.4444H3.1111V12.8333ZM11.6667 12.8333C11.6667 13.0479 11.4924 13.2222 11.2778 13.2222C11.0632 13.2222 10.8889 13.0479 10.8889 12.8333V12.4444H11.6667V12.8333ZM12.6377 6.83707C12.5181 6.90656 12.4444 7.03456 12.4444 7.17318V10.8889C12.4444 11.3177 12.0954 11.6667 11.6667 11.6667H2.33333C1.90458 11.6667 1.55557 11.3177 1.55557 10.8889V7.17318C1.55557 7.03493 1.48189 6.90696 1.36227 6.83707C0.996151 6.62404 0.777766 6.24881 0.777766 5.83333C0.777766 5.49077 0.927792 5.16644 1.18905 4.9443C1.45414 4.71869 1.79404 4.62605 2.14306 4.683C2.69485 4.77261 3.1111 5.30316 3.1111 5.91649V7.84941C2.65942 8.01048 2.33333 8.4381 2.33333 8.94443C2.33333 9.58778 2.85666 10.1111 3.5 10.1111H10.5C11.1433 10.1111 11.6667 9.58778 11.6667 8.94443C11.6667 8.4381 11.3406 8.01048 10.8889 7.84941V5.83333C10.8889 5.48012 11.0461 5.1501 11.3207 4.9272C11.5991 4.70123 11.9512 4.61807 12.3123 4.69365C12.7331 4.78177 13.084 5.12014 13.1854 5.53521C13.3134 6.05817 13.0984 6.56895 12.6377 6.83707Z" fill="#686868"/>
    </symbol>
    <symbol fill="inherit" id="icon-closets" xmlns="http://www.w3.org/2000/svg" width="12" height="14" viewBox="0 0 12 14"  >
        <path d="M10.5273 13.0977H1.23047C0.551988 13.0977 0 12.5457 0 11.8672V1.23047C0 0.551988 0.551988 0 1.23047 0H10.5273C11.2058 0 11.7578 0.551988 11.7578 1.23047V11.8672C11.7578 12.5457 11.2058 13.0977 10.5273 13.0977ZM1.23047 0.820312C1.00431 0.820312 0.820312 1.00431 0.820312 1.23047V11.8672C0.820312 12.0933 1.00431 12.2773 1.23047 12.2773H10.5273C10.7535 12.2773 10.9375 12.0933 10.9375 11.8672V1.23047C10.9375 1.00431 10.7535 0.820312 10.5273 0.820312H1.23047Z" fill="#686868"/>
        <path d="M2.37891 14C2.15239 14 1.96875 13.8164 1.96875 13.5898V12.6875C1.96875 12.461 2.15239 12.2773 2.37891 12.2773C2.60542 12.2773 2.78906 12.461 2.78906 12.6875V13.5898C2.78906 13.8164 2.60542 14 2.37891 14Z" fill="#686868"/>
        <path d="M9.37891 14C9.15239 14 8.96875 13.8164 8.96875 13.5898V12.6875C8.96875 12.461 9.15239 12.2773 9.37891 12.2773C9.60542 12.2773 9.78906 12.461 9.78906 12.6875V13.5898C9.78906 13.8164 9.60542 14 9.37891 14Z" fill="#686868"/>
        <path d="M5.87891 13.0977C5.65239 13.0977 5.46875 12.914 5.46875 12.6875V0.410156C5.46875 0.183641 5.65239 0 5.87891 0C6.10542 0 6.28906 0.183641 6.28906 0.410156V12.6875C6.28906 12.914 6.10542 13.0977 5.87891 13.0977Z" fill="#686868"/>
        <path d="M11.3477 9.59766H5.87891C5.65239 9.59766 5.46875 9.41402 5.46875 9.1875C5.46875 8.96098 5.65239 8.77734 5.87891 8.77734H11.3477C11.5742 8.77734 11.7578 8.96098 11.7578 9.1875C11.7578 9.41402 11.5742 9.59766 11.3477 9.59766Z" fill="#686868"/>
        <path d="M8.94141 11.375H8.28516C8.05864 11.375 7.875 11.1914 7.875 10.9648C7.875 10.7383 8.05864 10.5547 8.28516 10.5547H8.94141C9.16792 10.5547 9.35156 10.7383 9.35156 10.9648C9.35156 11.1914 9.16792 11.375 8.94141 11.375Z" fill="#686868"/>
        <path d="M4.12891 6.97266C3.90239 6.97266 3.71875 6.78902 3.71875 6.5625V5.90625C3.71875 5.67973 3.90239 5.49609 4.12891 5.49609C4.35542 5.49609 4.53906 5.67973 4.53906 5.90625V6.5625C4.53906 6.78902 4.35542 6.97266 4.12891 6.97266Z" fill="#686868"/>
        <path d="M7.62891 6.97266C7.40239 6.97266 7.21875 6.78902 7.21875 6.5625V5.90625C7.21875 5.67973 7.40239 5.49609 7.62891 5.49609C7.85542 5.49609 8.03906 5.67973 8.03906 5.90625V6.5625C8.03906 6.78902 7.85542 6.97266 7.62891 6.97266Z" fill="#686868"/>
    </symbol>
    <symbol fill="inherit" id="icon-office" xmlns="http://www.w3.org/2000/svg" width="14" height="14" viewBox="0 0 14 14"  >
        <path d="M13.5898 6.61719H12.959C13.0991 6.37566 13.1797 6.09561 13.1797 5.79688V4.56641C13.1797 4.33989 12.996 4.15625 12.7695 4.15625H11.9928C12.2291 3.05542 13.3496 2.45224 13.3689 2.44204C13.5694 2.33778 13.6479 2.09079 13.544 1.88986C13.4401 1.68861 13.1926 1.60975 12.9914 1.71374C12.9511 1.73458 12.43 2.0099 11.9492 2.5425V1.25781C11.9492 1.0313 11.7656 0.847656 11.5391 0.847656C11.3125 0.847656 11.1289 1.0313 11.1289 1.25781V2.5425C10.6481 2.0099 10.127 1.73458 10.0867 1.71374C9.88545 1.6097 9.63804 1.68864 9.53405 1.88986C9.43007 2.09111 9.50893 2.33855 9.71015 2.44251C9.72286 2.44907 10.8503 3.04454 11.0859 4.15625H10.3086C10.0821 4.15625 9.89844 4.33989 9.89844 4.56641V5.79688C9.89844 6.09561 9.97907 6.37566 10.1192 6.61719H6.43316L6.02301 5.79688H7.84766C8.07417 5.79688 8.25781 5.61323 8.25781 5.38672V0.410156C8.25781 0.183641 8.07417 0 7.84766 0H1.23047C1.00395 0 0.820312 0.183641 0.820312 0.410156V5.38672C0.820312 5.61323 1.00395 5.79688 1.23047 5.79688H3.05512L2.64496 6.61719H0.410156C0.183641 6.61719 0 6.80083 0 7.02734C0 7.25386 0.183641 7.4375 0.410156 7.4375H0.820312V13.5898C0.820312 13.8164 1.00395 14 1.23047 14C1.45698 14 1.64062 13.8164 1.64062 13.5898V12.3594H7.4375V13.5898C7.4375 13.8164 7.62114 14 7.84766 14H12.7695C12.996 14 13.1797 13.8164 13.1797 13.5898V7.4375H13.5898C13.8164 7.4375 14 7.25386 14 7.02734C14 6.80083 13.8164 6.61719 13.5898 6.61719ZM10.7188 5.79688V4.97656H12.3594V5.79688C12.3594 6.2492 11.9914 6.61719 11.5391 6.61719C11.0867 6.61719 10.7188 6.2492 10.7188 5.79688ZM1.64062 0.820312H7.4375V4.97656H1.64062V0.820312ZM3.97223 5.79688H5.1059L5.51605 6.61719H3.56207L3.97223 5.79688ZM1.64062 11.5391V7.4375H7.4375V11.5391H1.64062ZM8.25781 10.7188H12.3594V13.1797H8.25781V10.7188ZM12.3594 9.89844H8.25781V7.4375H12.3594V9.89844Z" fill="#686868"/>
        <path d="M10.3086 9.07812C10.5351 9.07812 10.7188 8.89449 10.7188 8.66797C10.7188 8.44145 10.5351 8.25781 10.3086 8.25781C10.0821 8.25781 9.89844 8.44145 9.89844 8.66797C9.89844 8.89449 10.0821 9.07812 10.3086 9.07812Z" fill="#686868"/>
        <path d="M10.3086 12.3594C10.5351 12.3594 10.7188 12.1757 10.7188 11.9492C10.7188 11.7227 10.5351 11.5391 10.3086 11.5391C10.0821 11.5391 9.89844 11.7227 9.89844 11.9492C9.89844 12.1757 10.0821 12.3594 10.3086 12.3594Z" fill="#686868"/>
    </symbol>
    <symbol id="icon-search" xmlns="http://www.w3.org/2000/svg" width="16" height="16" viewBox="0 0 16 16" fill="none">
        <path d="M15 15L11 11M7 13C3.68629 13 1 10.3137 1 7C1 3.68629 3.68629 1 7 1C10.3137 1 13 3.68629 13 7C13 10.3137 10.3137 13 7 13Z" stroke="black"/>
    </symbol>
    <symbol id="icon-delivery" xmlns="http://www.w3.org/2000/svg" width="29" height="17" viewBox="0 0 29 17" fill="none">
        <path d="M7.85418 14.5H5.43751C5.10401 14.5 4.83334 14.2293 4.83334 13.8958C4.83334 13.5623 5.10401 13.2917 5.43751 13.2917H7.85418C8.18768 13.2917 8.45834 13.5623 8.45834 13.8958C8.45834 14.2293 8.18768 14.5 7.85418 14.5Z" fill="black"/>
        <path d="M27.4896 14.5H25.9792C25.6457 14.5 25.375 14.2293 25.375 13.8958C25.375 13.5623 25.6457 13.2917 25.9792 13.2917H26.9881L27.8026 8.95133C27.7917 6.73042 25.8946 4.83333 23.5625 4.83333H19.5956L17.6731 13.2917H21.1459C21.4794 13.2917 21.75 13.5623 21.75 13.8958C21.75 14.2293 21.4794 14.5 21.1459 14.5H16.9167C16.733 14.5 16.559 14.4166 16.4442 14.2728C16.3294 14.1303 16.2859 13.9418 16.327 13.7629L18.5238 4.09625C18.5866 3.81954 18.8307 3.625 19.1134 3.625H23.5625C26.5604 3.625 29 6.06463 29 9.0625L28.0829 14.007C28.0297 14.2934 27.7808 14.5 27.4896 14.5Z" fill="black"/>
        <path d="M23.5625 16.9167C21.8974 16.9167 20.5417 15.5621 20.5417 13.8958C20.5417 12.2295 21.8974 10.875 23.5625 10.875C25.2276 10.875 26.5833 12.2295 26.5833 13.8958C26.5833 15.5621 25.2276 16.9167 23.5625 16.9167ZM23.5625 12.0833C22.5632 12.0833 21.75 12.8965 21.75 13.8958C21.75 14.8951 22.5632 15.7083 23.5625 15.7083C24.5618 15.7083 25.375 14.8951 25.375 13.8958C25.375 12.8965 24.5618 12.0833 23.5625 12.0833Z" fill="black"/>
        <path d="M10.2708 16.9167C8.60576 16.9167 7.25001 15.5621 7.25001 13.8958C7.25001 12.2295 8.60576 10.875 10.2708 10.875C11.9359 10.875 13.2917 12.2295 13.2917 13.8958C13.2917 15.5621 11.9359 16.9167 10.2708 16.9167ZM10.2708 12.0833C9.27155 12.0833 8.45834 12.8965 8.45834 13.8958C8.45834 14.8951 9.27155 15.7083 10.2708 15.7083C11.2701 15.7083 12.0833 14.8951 12.0833 13.8958C12.0833 12.8965 11.2701 12.0833 10.2708 12.0833Z" fill="black"/>
        <path d="M7.85417 3.625H3.02084C2.68734 3.625 2.41667 3.35433 2.41667 3.02083C2.41667 2.68733 2.68734 2.41667 3.02084 2.41667H7.85417C8.18767 2.41667 8.45834 2.68733 8.45834 3.02083C8.45834 3.35433 8.18767 3.625 7.85417 3.625Z" fill="black"/>
        <path d="M7.85418 7.25H1.81251C1.47901 7.25 1.20834 6.97933 1.20834 6.64583C1.20834 6.31233 1.47901 6.04167 1.81251 6.04167H7.85418C8.18768 6.04167 8.45834 6.31233 8.45834 6.64583C8.45834 6.97933 8.18768 7.25 7.85418 7.25Z" fill="black"/>
        <path d="M7.85417 10.875H0.604167C0.270667 10.875 0 10.6043 0 10.2708C0 9.93733 0.270667 9.66667 0.604167 9.66667H7.85417C8.18767 9.66667 8.45833 9.93733 8.45833 10.2708C8.45833 10.6043 8.18767 10.875 7.85417 10.875Z" fill="black"/>
        <path d="M16.9167 14.5L12.6875 14.5C12.354 14.5 12.0833 14.2293 12.0833 13.8958C12.0833 13.5623 12.354 13.2917 12.6875 13.2917H16.4346L19.1799 1.20833H5.43751C5.10401 1.20833 4.83334 0.937667 4.83334 0.604167C4.83334 0.270667 5.10401 0 5.43751 0H19.9375C20.1212 0 20.2952 0.0833752 20.41 0.227167C20.5248 0.36975 20.5683 0.55825 20.5272 0.737083L17.5063 14.0287C17.4435 14.3055 17.1982 14.5 16.9167 14.5Z" fill="black"/>
    </symbol>
    <symbol id="icon-delivery--white" xmlns="http://www.w3.org/2000/svg" width="29" height="18" viewBox="0 0 29 18" fill="none">
        <path d="M7.85418 14.9584H5.43751C5.10401 14.9584 4.83334 14.6877 4.83334 14.3542C4.83334 14.0207 5.10401 13.75 5.43751 13.75H7.85418C8.18768 13.75 8.45834 14.0207 8.45834 14.3542C8.45834 14.6877 8.18768 14.9584 7.85418 14.9584Z" fill="white"/>
        <path d="M27.4896 14.9584H25.9792C25.6457 14.9584 25.375 14.6877 25.375 14.3542C25.375 14.0207 25.6457 13.75 25.9792 13.75H26.9881L27.8026 9.40971C27.7917 7.18879 25.8946 5.29171 23.5625 5.29171H19.5956L17.6731 13.75H21.1459C21.4794 13.75 21.75 14.0207 21.75 14.3542C21.75 14.6877 21.4794 14.9584 21.1459 14.9584H16.9167C16.733 14.9584 16.559 14.875 16.4442 14.7312C16.3294 14.5886 16.2859 14.4001 16.327 14.2213L18.5238 4.55462C18.5866 4.27792 18.8307 4.08337 19.1134 4.08337H23.5625C26.5604 4.08337 29 6.523 29 9.52087L28.0829 14.4654C28.0297 14.7517 27.7808 14.9584 27.4896 14.9584Z" fill="white"/>
        <path d="M23.5625 17.375C21.8974 17.375 20.5417 16.0205 20.5417 14.3542C20.5417 12.6879 21.8974 11.3334 23.5625 11.3334C25.2276 11.3334 26.5833 12.6879 26.5833 14.3542C26.5833 16.0205 25.2276 17.375 23.5625 17.375ZM23.5625 12.5417C22.5632 12.5417 21.75 13.3549 21.75 14.3542C21.75 15.3535 22.5632 16.1667 23.5625 16.1667C24.5618 16.1667 25.375 15.3535 25.375 14.3542C25.375 13.3549 24.5618 12.5417 23.5625 12.5417Z" fill="white"/>
        <path d="M10.2708 17.375C8.60576 17.375 7.25001 16.0205 7.25001 14.3542C7.25001 12.6879 8.60576 11.3334 10.2708 11.3334C11.9359 11.3334 13.2917 12.6879 13.2917 14.3542C13.2917 16.0205 11.9359 17.375 10.2708 17.375ZM10.2708 12.5417C9.27155 12.5417 8.45834 13.3549 8.45834 14.3542C8.45834 15.3535 9.27155 16.1667 10.2708 16.1667C11.2701 16.1667 12.0833 15.3535 12.0833 14.3542C12.0833 13.3549 11.2701 12.5417 10.2708 12.5417Z" fill="white"/>
        <path d="M7.85417 4.08337H3.02084C2.68734 4.08337 2.41667 3.81271 2.41667 3.47921C2.41667 3.14571 2.68734 2.87504 3.02084 2.87504H7.85417C8.18767 2.87504 8.45834 3.14571 8.45834 3.47921C8.45834 3.81271 8.18767 4.08337 7.85417 4.08337Z" fill="white"/>
        <path d="M7.85418 7.70837H1.81251C1.47901 7.70837 1.20834 7.43771 1.20834 7.10421C1.20834 6.77071 1.47901 6.50004 1.81251 6.50004H7.85418C8.18768 6.50004 8.45834 6.77071 8.45834 7.10421C8.45834 7.43771 8.18768 7.70837 7.85418 7.70837Z" fill="white"/>
        <path d="M7.85417 11.3334H0.604167C0.270667 11.3334 0 11.0627 0 10.7292C0 10.3957 0.270667 10.125 0.604167 10.125H7.85417C8.18767 10.125 8.45833 10.3957 8.45833 10.7292C8.45833 11.0627 8.18767 11.3334 7.85417 11.3334Z" fill="white"/>
        <path d="M16.9167 14.9584L12.6875 14.9584C12.354 14.9584 12.0833 14.6877 12.0833 14.3542C12.0833 14.0207 12.354 13.75 12.6875 13.75H16.4346L19.1799 1.66671H5.43751C5.10401 1.66671 4.83334 1.39604 4.83334 1.06254C4.83334 0.729041 5.10401 0.458374 5.43751 0.458374H19.9375C20.1212 0.458374 20.2952 0.541749 20.41 0.685541C20.5248 0.828124 20.5683 1.01662 20.5272 1.19546L17.5063 14.4871C17.4435 14.7638 17.1982 14.9584 16.9167 14.9584Z" fill="white"/>
    </symbol>
    <svg id="icon-phone" xmlns="http://www.w3.org/2000/svg" width="19" height="19" viewBox="0 0 19 19" fill="none">
        <path d="M6.12334 1H3.42857C2.08731 1 1 2.08731 1 3.42857V5.85714C1 12.5635 6.43654 18 13.1429 18H15.5714C16.9127 18 18 16.9127 18 15.5714V13.8933C18 13.4334 17.7401 13.0129 17.3288 12.8072L14.3951 11.3404C13.7342 11.01 12.9338 11.3415 12.7001 12.0425L12.3385 13.1272C12.1043 13.8299 11.3836 14.2481 10.6573 14.1029C7.75057 13.5215 5.47846 11.2494 4.89711 8.34268C4.75186 7.61643 5.17013 6.89567 5.87276 6.66146L7.21895 6.21273C7.8209 6.01208 8.16688 5.38181 8.01299 4.76625L7.30137 1.91978C7.16623 1.37922 6.68054 1 6.12334 1Z" stroke="white"/>
    </svg>
</svg>